HIERARCHY
ROOT Hips
{
	OFFSET 0.000000 0.000000 0.000000
	CHANNELS 6 Xposition Yposition Zposition Zrotation Yrotation Xrotation 
	JOINT LHipJoint
	{
		OFFSET 0.000000 0.000000 0.000000
		CHANNELS 3 Zrotation Yrotation Xrotation
		JOINT LeftUpLeg
		{
			OFFSET 1.363060 -1.794630 0.839290
			CHANNELS 3 Zrotation Yrotation Xrotation
			JOINT LeftLeg
			{
				OFFSET 2.448110 -6.726130 0.000000
				CHANNELS 3 Zrotation Yrotation Xrotation
				JOINT LeftFoot
				{
					OFFSET 2.562200 -7.039590 0.000000
					CHANNELS 3 Zrotation Yrotation Xrotation
					JOINT LeftToeBase
					{
						OFFSET 0.157640 -0.433110 2.322550
						CHANNELS 3 Zrotation Yrotation Xrotation
						End Site
						{
							OFFSET 0.000000 0.000000 0.000000
						}
					}
				}
			}
		}
	}
	JOINT RHipJoint
	{
		OFFSET 0.000000 0.000000 0.000000
		CHANNELS 3 Zrotation Yrotation Xrotation
		JOINT RightUpLeg
		{
			OFFSET -1.305520 -1.794630 0.839290
			CHANNELS 3 Zrotation Yrotation Xrotation
			JOINT RightLeg
			{
				OFFSET -2.542530 -6.985550 0.000000
				CHANNELS 3 Zrotation Yrotation Xrotation
				JOINT RightFoot
				{
					OFFSET -2.568260 -7.056230 0.000000
					CHANNELS 3 Zrotation Yrotation Xrotation
					JOINT RightToeBase
					{
						OFFSET -0.164730 -0.452590 2.363150
						CHANNELS 3 Zrotation Yrotation Xrotation
						End Site
						{
							OFFSET 0.000000 0.000000 0.000000
						}
					}
				}
			}
		}
	}
	JOINT LowerBack
	{
		OFFSET 0.000000 0.000000 0.000000
		CHANNELS 3 Zrotation Yrotation Xrotation
		JOINT Spine
		{
			OFFSET 0.028270 2.035590 -0.193380
			CHANNELS 3 Zrotation Yrotation Xrotation
			JOINT Spine1
			{
				OFFSET 0.056720 2.048850 -0.042750
				CHANNELS 3 Zrotation Yrotation Xrotation
				JOINT Neck
				{
					OFFSET 0.000000 0.000000 0.000000
					CHANNELS 3 Zrotation Yrotation Xrotation
					JOINT Neck1
					{
						OFFSET -0.054170 1.746240 0.172020
						CHANNELS 3 Zrotation Yrotation Xrotation
						JOINT Head
						{
							OFFSET 0.104070 1.761360 -0.123970
							CHANNELS 3 Zrotation Yrotation Xrotation
							End Site
							{
								OFFSET 0.000000 0.000000 0.000000
							}
						}
					}
				}
				JOINT LeftShoulder
				{
					OFFSET 0.000000 0.000000 0.000000
					CHANNELS 3 Zrotation Yrotation Xrotation
					JOINT LeftArm
					{
						OFFSET 3.362410 1.200890 -0.311210
						CHANNELS 3 Zrotation Yrotation Xrotation
						JOINT LeftForeArm
						{
							OFFSET 4.983000 -0.000000 -0.000000
							CHANNELS 3 Zrotation Yrotation Xrotation
							JOINT LeftHand
							{
								OFFSET 3.483560 -0.000000 -0.000000
								CHANNELS 3 Zrotation Yrotation Xrotation
								JOINT LeftFingerBase
								{
									OFFSET 0.000000 0.000000 0.000000
									CHANNELS 3 Zrotation Yrotation Xrotation
									JOINT LeftHandIndex1
									{
										OFFSET 0.715260 -0.000000 -0.000000
										CHANNELS 3 Zrotation Yrotation Xrotation
										End Site
										{
											OFFSET 0.000000 0.000000 0.000000
										}
									}
								}
								JOINT LThumb
								{
									OFFSET 0.000000 0.000000 0.000000
									CHANNELS 3 Zrotation Yrotation Xrotation
									End Site
									{
										OFFSET 0.000000 0.000000 0.000000
									}
								}
							}
						}
					}
				}
				JOINT RightShoulder
				{
					OFFSET 0.000000 0.000000 0.000000
					CHANNELS 3 Zrotation Yrotation Xrotation
					JOINT RightArm
					{
						OFFSET -3.136600 1.374050 -0.404650
						CHANNELS 3 Zrotation Yrotation Xrotation
						JOINT RightForeArm
						{
							OFFSET -5.241900 -0.000000 -0.000000
							CHANNELS 3 Zrotation Yrotation Xrotation
							JOINT RightHand
							{
								OFFSET -3.444170 -0.000000 -0.000000
								CHANNELS 3 Zrotation Yrotation Xrotation
								JOINT RightFingerBase
								{
									OFFSET 0.000000 0.000000 0.000000
									CHANNELS 3 Zrotation Yrotation Xrotation
									JOINT RightHandIndex1
									{
										OFFSET -0.622530 -0.000000 -0.000000
										CHANNELS 3 Zrotation Yrotation Xrotation
										End Site
										{
											OFFSET 0.000000 0.000000 0.000000
										}
									}
								}
								JOINT RThumb
								{
									OFFSET 0.000000 0.000000 0.000000
									CHANNELS 3 Zrotation Yrotation Xrotation
									End Site
									{
										OFFSET 0.000000 0.000000 0.000000
									}
								}
							}
						}
					}
				}
			}
		}
	}
}
MOTION
Frames: 6
Frame Time: 0.008333
-2.400902 17.483122 -2.328137 -117.381185 84.428778 -99.808611 -11.812257 2.410703 0.635851 -10.079580 -2.131647 -4.893407 -0.631089 0.934097 21.476622 1.010612 6.663989 2.853351 1.189300 0.000000 -48.300300 7.143259 -0.834747 2.045489 10.341086 3.581790 -32.871895 3.657191 0.250756 10.259396 -0.208752 -0.632288 -0.641920 -0.609200 -0.000000 -54.575900 4.878077 -3.716558 -1.507829 0.727410 -4.076892 -3.437315 -6.086046 -3.992161 -1.528517 10.566561 -17.165319 -9.865320 -2.465030 -0.166964 -0.561865 0.000000 0.000000 0.000000 6.131330 6.808379 -0.496256 -76.339845 8.368214 32.939792 -179.642912 -71.411594 179.976892 2.585590 -5.792531 -0.142761 -0.002117 0.667688 -0.000000 0.000000 0.000000 0.000000 0.000000 0.000000 0.000000 6.982024 -11.403271 -0.948275 69.422067 -13.671717 26.969970 179.458847 70.003372 179.986762 -1.161146 8.175654 -0.084229 -0.037518 -0.558794 -0.000000 0.000000 0.000000 0.000000 0.000000 0.000000 0.000000 
-2.165771 17.504604 -2.344213 -119.414342 84.341563 -101.850026 -11.823201 2.462025 0.631579 -10.105731 -2.422422 -4.534954 -0.523476 1.021542 22.321037 1.113755 7.408711 3.476530 1.386800 0.000001 -45.715700 7.113244 -0.788218 2.180675 10.206162 3.777824 -32.307102 3.791623 0.523758 7.868393 0.029766 0.381712 0.319588 -0.478200 -0.000000 -55.480300 4.876827 -3.715406 -1.621254 0.736533 -4.080351 -3.448500 -6.047672 -3.996188 -1.486367 10.485400 -17.380450 -9.878288 -2.427306 -0.164241 -0.561138 0.000000 0.000000 0.000000 6.358777 6.780263 -0.546179 -76.449384 8.399488 33.206707 -179.646408 -71.322842 179.978734 2.323684 -5.801039 -0.127768 0.007479 0.667957 -0.000000 0.000000 0.000000 0.000000 0.000000 0.000000 0.000000 6.772975 -11.613928 -0.983229 69.474175 -14.234016 26.543648 179.461525 69.805564 179.987375 -1.020823 8.076641 -0.072185 -0.043138 -0.553207 -0.000000 0.000000 0.000000 0.000000 0.000000 0.000000 0.000000 
-1.932084 17.515084 -2.359853 -121.579652 84.255752 -104.018715 -11.831894 2.501022 0.629978 -10.175286 -2.699528 -4.440957 -0.414818 1.119205 23.681858 1.244937 8.316709 3.696612 1.576900 0.000000 -42.869999 7.102929 -0.749063 2.293029 10.048797 3.941703 -31.926845 3.892363 0.709377 6.179560 0.252478 1.405819 1.165022 -0.311700 -0.000001 -56.173200 4.852225 -3.709613 -1.729598 0.738324 -4.077435 -3.459627 -6.016155 -3.993857 -1.449036 10.409994 -17.579968 -9.892227 -2.393897 -0.161804 -0.561028 0.000000 0.000000 0.000000 6.564695 6.740767 -0.594714 -76.558633 8.434805 33.434551 -179.655372 -71.263609 179.979856 2.155089 -5.790270 -0.117651 0.014319 0.667312 -0.000000 0.000000 0.000000 0.000000 0.000000 0.000000 0.000000 6.589881 -11.807470 -1.009372 69.552508 -14.734562 26.115214 179.463417 69.662189 179.987892 -0.901065 8.012101 -0.062331 -0.047836 -0.548649 -0.000000 0.000000 0.000000 0.000000 0.000000 0.000000 0.000000 
-1.700463 17.514204 -2.375480 -123.670367 84.149894 -106.108290 -11.849193 2.523572 0.616799 -10.241525 -2.911739 -4.610171 -0.304433 1.228309 25.544333 1.397842 9.339570 3.541833 1.740200 -0.000000 -39.687400 7.099965 -0.727280 2.397225 9.878432 4.159931 -31.689397 3.958407 0.814138 5.128949 0.441939 2.326308 1.911441 -0.138800 0.000000 -56.720800 4.830324 -3.694729 -1.827810 0.737935 -4.065230 -3.468378 -5.991390 -3.981823 -1.409226 10.339893 -17.753630 -9.912779 -2.364068 -0.159479 -0.563497 0.000000 0.000000 0.000000 6.741946 6.735149 -0.636779 -76.663930 8.418386 33.651458 -179.664818 -71.254763 179.980383 2.075707 -5.764582 -0.112602 0.017704 0.666094 -0.000000 0.000000 0.000000 0.000000 0.000000 0.000000 0.000000 6.428644 -11.971955 -1.030285 69.666198 -15.168328 25.673042 179.465805 69.575825 179.988320 -0.792942 7.983408 -0.053770 -0.052078 -0.545145 -0.000000 0.000000 0.000000 0.000000 0.000000 0.000000 0.000000 
-1.471385 17.501451 -2.391225 -125.629512 84.017499 -108.067999 -11.881026 2.531051 0.590544 -10.283643 -3.054496 -5.015500 -0.190014 1.350128 27.850777 1.569146 10.456101 3.112228 1.870900 0.000000 -36.656200 7.098837 -0.727072 2.489214 9.714769 4.429655 -31.588910 3.993971 0.838439 4.724107 0.594624 3.115625 2.518761 0.026900 -0.000000 -57.029200 4.821146 -3.672167 -1.908160 0.737381 -4.045499 -3.476502 -5.973349 -3.962229 -1.379831 10.270138 -17.895587 -9.930200 -2.338617 -0.157479 -0.565771 0.000000 0.000000 0.000000 6.880953 6.713582 -0.672933 -76.769221 8.406784 33.809878 -179.677220 -71.262780 179.980387 2.064149 -5.729010 -0.111233 0.019041 0.664563 -0.000000 0.000000 0.000000 0.000000 0.000000 0.000000 0.000000 6.277453 -12.100717 -1.040081 69.816425 -15.534120 25.230516 179.468841 69.549039 179.988581 -0.713324 7.991738 -0.047699 -0.055343 -0.542818 -0.000000 0.000000 0.000000 0.000000 0.000000 0.000000 0.000000 
-1.245307 17.476452 -2.407342 -127.300829 83.846899 -109.741963 -11.934465 2.521532 0.543218 -10.267470 -3.108627 -5.633427 -0.072159 1.485440 30.546270 1.751291 11.615213 2.456376 1.952499 0.000000 -33.683200 7.090561 -0.751574 2.579563 9.562865 4.814747 -31.588575 3.995680 0.793056 4.888281 0.699499 3.679413 2.993630 0.156900 0.000000 -57.139900 4.842589 -3.638304 -1.967808 0.740307 -4.015800 -3.481892 -5.961224 -3.932255 -1.353486 10.201791 -17.997110 -9.950263 -2.316510 -0.155610 -0.569784 0.000000 0.000000 0.000000 6.980485 6.719414 -0.698270 -76.875960 8.345532 33.934590 -179.686957 -71.310756 179.980124 2.097505 -5.690683 -0.112441 0.018307 0.663091 -0.000000 0.000000 0.000000 0.000000 0.000000 0.000000 0.000000 6.133047 -12.182832 -1.042828 70.008246 -15.832695 24.775465 179.473696 69.575551 179.988702 -0.650294 8.035122 -0.043021 -0.058208 -0.541635 -0.000000 0.000000 0.000000 0.000000 0.000000 0.000000 0.000000 
